ply
format ascii 1.0
comment Created by Blender 2.83.10 - www.blender.org, source file: ''
element vertex 39
property float x
property float y
property float z
property float nx
property float ny
property float nz
element face 8
property list uchar uint vertex_indices
end_header
0.250000 0.175000 0.025000 0.707107 0.707107 0.000000
0.250000 0.175000 0.000000 0.707107 0.707107 0.000000
0.175000 0.250000 0.000000 0.707107 0.707107 0.000000
0.175000 0.250000 0.025000 0.707107 0.707107 0.000000
-0.250000 -0.122663 0.025000 0.000000 0.000000 1.000000
0.006241 0.013470 0.025000 0.000000 0.000000 1.000000
0.075000 0.050000 0.025000 0.000000 0.000000 1.000000
0.125000 0.050000 0.025000 0.000000 0.000000 1.000000
0.125000 -0.050000 0.025000 0.000000 0.000000 1.000000
-0.121553 -0.250000 0.025000 0.000000 0.000000 1.000000
0.250000 -0.250000 0.025000 0.000000 0.000000 1.000000
0.250000 0.175000 0.025000 0.000000 0.000000 1.000000
0.175000 0.250000 0.025000 0.000000 0.000000 1.000000
-0.250000 0.250000 0.025000 0.000000 0.000000 1.000000
0.125000 0.050000 0.025000 0.000000 1.000000 0.000000
0.075000 0.050000 0.025000 0.000000 1.000000 0.000000
0.075000 0.050000 0.125000 0.000000 1.000000 0.000000
0.125000 0.050000 0.125000 0.000000 1.000000 0.000000
0.075000 0.050000 0.125000 0.000000 0.707107 0.707107
0.075000 0.000000 0.175000 0.000000 0.707107 0.707107
0.125000 0.000000 0.175000 0.000000 0.707107 0.707107
0.125000 0.050000 0.125000 0.000000 0.707107 0.707107
0.250000 -0.250000 0.025000 1.000000 0.000000 0.000000
0.250000 -0.250000 0.000000 1.000000 0.000000 0.000000
0.250000 0.175000 0.000000 1.000000 0.000000 0.000000
0.250000 0.175000 0.025000 1.000000 0.000000 0.000000
0.075000 0.000000 0.175000 0.000000 0.000000 1.000000
0.075000 -0.050000 0.175000 0.000000 0.000000 1.000000
0.125000 -0.050000 0.175000 0.000000 0.000000 1.000000
0.125000 0.000000 0.175000 0.000000 0.000000 1.000000
0.125000 -0.050000 0.175000 1.000000 -0.000000 0.000000
0.125000 -0.050000 0.025000 1.000000 -0.000000 0.000000
0.125000 0.050000 0.025000 1.000000 -0.000000 0.000000
0.125000 0.050000 0.125000 1.000000 -0.000000 0.000000
0.125000 0.000000 0.175000 1.000000 -0.000000 0.000000
0.175000 0.250000 0.025000 -0.000000 1.000000 0.000000
0.175000 0.250000 0.000000 -0.000000 1.000000 0.000000
-0.250000 0.250000 0.000000 -0.000000 1.000000 0.000000
-0.250000 0.250000 0.025000 -0.000000 1.000000 0.000000
4 0 1 2 3
10 4 5 6 7 8 9 10 11 12 13
4 14 15 16 17
4 18 19 20 21
4 22 23 24 25
4 26 27 28 29
5 30 31 32 33 34
4 35 36 37 38
