ply
format ascii 1.0
comment Created by Blender 2.83.10 - www.blender.org, source file: 'plate_rect_block_c2_blndr.blend'
element vertex 39
property float x
property float y
property float z
property float nx
property float ny
property float nz
element face 8
property list uchar uint vertex_indices
end_header
0.250000 0.175000 0.025000 0.707107 0.707107 0.000000
0.250000 0.175000 0.000000 0.707107 0.707107 0.000000
0.175000 0.250000 0.000000 0.707107 0.707107 0.000000
0.175000 0.250000 0.025000 0.707107 0.707107 0.000000
0.250000 -0.250000 0.025000 1.000000 0.000000 0.000000
0.250000 -0.250000 0.000000 1.000000 0.000000 0.000000
0.250000 0.175000 0.000000 1.000000 0.000000 0.000000
0.250000 0.175000 0.025000 1.000000 0.000000 0.000000
0.125000 0.050000 0.175000 1.000000 -0.000000 0.000000
0.125000 0.050000 0.025000 1.000000 -0.000000 0.000000
0.125000 0.150000 0.025000 1.000000 -0.000000 0.000000
0.125000 0.150000 0.125000 1.000000 -0.000000 0.000000
0.125000 0.100000 0.175000 1.000000 -0.000000 0.000000
0.125000 0.150000 0.025000 0.000000 1.000000 0.000000
0.075000 0.150000 0.025000 0.000000 1.000000 0.000000
0.075000 0.150000 0.125000 0.000000 1.000000 0.000000
0.125000 0.150000 0.125000 0.000000 1.000000 0.000000
0.075000 0.100000 0.175000 0.000000 0.000000 1.000000
0.075000 0.050000 0.175000 0.000000 0.000000 1.000000
0.125000 0.050000 0.175000 0.000000 0.000000 1.000000
0.125000 0.100000 0.175000 0.000000 0.000000 1.000000
0.075000 0.150000 0.125000 0.000000 0.707107 0.707107
0.075000 0.100000 0.175000 0.000000 0.707107 0.707107
0.125000 0.100000 0.175000 0.000000 0.707107 0.707107
0.125000 0.150000 0.125000 0.000000 0.707107 0.707107
0.175000 0.250000 0.025000 -0.000000 1.000000 0.000000
0.175000 0.250000 0.000000 -0.000000 1.000000 0.000000
-0.250000 0.250000 0.000000 -0.000000 1.000000 0.000000
-0.250000 0.250000 0.025000 -0.000000 1.000000 0.000000
0.125000 0.050000 0.025000 0.000000 0.000000 1.000000
-0.182729 -0.250000 0.025000 0.000000 0.000000 1.000000
0.250000 -0.250000 0.025000 0.000000 0.000000 1.000000
0.250000 0.175000 0.025000 0.000000 0.000000 1.000000
0.175000 0.250000 0.025000 0.000000 0.000000 1.000000
-0.250000 0.250000 0.025000 0.000000 0.000000 1.000000
-0.250000 -0.156893 0.025000 0.000000 0.000000 1.000000
0.010884 0.089456 0.025000 0.000000 0.000000 1.000000
0.075000 0.150000 0.025000 0.000000 0.000000 1.000000
0.125000 0.150000 0.025000 0.000000 0.000000 1.000000
4 0 1 2 3
4 4 5 6 7
5 8 9 10 11 12
4 13 14 15 16
4 17 18 19 20
4 21 22 23 24
4 25 26 27 28
10 29 30 31 32 33 34 35 36 37 38
