ply
format ascii 1.0
comment meshmixer generated
element vertex 25
property float x
property float y
property float z
property float nx
property float ny
property float nz
property uchar red
property uchar green
property uchar blue
property uchar alpha
element face 38
property list uchar int vertex_indices
end_header
-2.500000664e-05 -5.000001329e-05 0.0001749999938 -0.4423257709 -0.8846517801 0.1474419534 255 255 255 255
-2.500000664e-05 1.071565874e-20 0.0001749999938 -0.9113223553 0.1301889271 0.3905667961 255 255 255 255
-2.500000664e-05 -5.000001329e-05 2.499999937e-05 -0.1860935241 -0.05075278506 0.9812203646 255 255 255 255
-2.500000664e-05 5.000001329e-05 0.0001250000059 -0.7844644785 0.5883484483 0.1961161941 255 255 255 255
-2.500000664e-05 5.000001329e-05 2.499999937e-05 -0.08472371846 0.04236186296 0.9955035448 255 255 255 255
2.500000664e-05 -5.000001329e-05 0.0001749999938 0.889000833 -0.3810004592 0.2540002763 255 255 255 255
2.500000664e-05 -5.000001329e-05 2.499999937e-05 0.1842711568 -0.110562712 0.976637125 255 255 255 255
2.500000664e-05 1.071565874e-20 0.0001749999938 0.2672611475 0.5345224142 0.8017838001 255 255 255 255
2.500000664e-05 5.000001329e-05 0.0001250000059 0.9610744715 0.2621112466 0.08737044036 255 255 255 255
2.500000664e-05 5.000001329e-05 2.499999937e-05 0.08109404147 0.08109405637 0.9934020042 255 255 255 255
-0.0002500000119 0.0002500000119 2.816297183e-06 -0.08297650516 0.12023855 -0.9892712235 255 255 255 255
0.0002500000119 -0.0002500000119 2.816297183e-06 0.06912144274 -0.1405228823 -0.9876616597 255 255 255 255
-0.0002500000119 -0.0002500000119 2.816297183e-06 -0.06577140838 -0.04501387104 -0.9968189001 255 255 255 255
-0.0002500000119 -0.0001936740591 2.816297183e-06 -0.07406217605 -0.02189552225 -0.9970132113 255 255 255 255
0.0001936740591 -0.0002500000119 2.816297183e-06 0.0484928377 -0.1492320448 -0.9876123667 255 255 255 255
0.0001750000083 0.0002500000119 2.499999937e-05 0.008596481755 0.1060232893 0.9943264723 255 255 255 255
-0.0002500000119 0.0002500000119 2.499999937e-05 -0.1127799153 0.04793146625 0.9924632311 255 255 255 255
-0.0002500000119 -0.0002500000119 2.499999937e-05 -0.05574167147 -0.1114833429 0.9922017455 255 255 255 255
0.0002500000119 -0.0002500000119 2.499999937e-05 0.08651736379 -0.05089256167 0.9949495792 255 255 255 255
0.0002500000119 0.0001750000083 2.499999937e-05 0.4087637961 0.1066340208 0.9063891768 255 255 255 255
0.0002500000119 0.0001750000083 2.816297183e-06 0.1498630941 0.02261223644 -0.988448143 255 255 255 255
0.0002500000119 0.0001271229557 2.816297183e-06 0.1059669554 0.0001924947719 -0.994369626 255 255 255 255
0.0001750000083 0.0002500000119 2.816297183e-06 0.01643289998 0.07359606028 -0.9971527457 255 255 255 255
-0.0002021229593 0.0002500000119 2.816297183e-06 -0.06543542445 0.1287177354 -0.9895200729 255 255 255 255
0.0001834489085 0.0002415511117 2.816297183e-06 0.07337631285 0.07257179916 -0.9946603775 255 255 255 255
3 0 1 2 
3 2 1 3 
3 2 3 4 
3 5 0 6 
3 6 0 2 
3 7 5 8 
3 8 5 6 
3 8 6 9 
3 8 9 3 
3 3 9 4 
3 0 5 1 
3 1 5 7 
3 1 7 3 
3 3 7 8 
3 15 19 24 
3 2 16 17 
3 4 16 2 
3 4 15 16 
3 9 15 4 
3 9 18 15 
3 6 18 9 
3 6 17 18 
3 2 17 6 
3 18 19 15 
3 16 23 10 
3 16 15 23 
3 15 22 23 
3 18 11 21 
3 19 21 20 
3 19 18 21 
3 17 12 14 
3 18 14 11 
3 18 17 14 
3 16 10 13 
3 17 13 12 
3 17 16 13 
3 15 24 22 
3 19 20 24 
