ply
format ascii 1.0
comment Created by Blender 2.83.10 - www.blender.org, source file: 'plate_rect_block_c1_30_blndr.blend'
element vertex 42
property float x
property float y
property float z
property float nx
property float ny
property float nz
element face 8
property list uchar uint vertex_indices
end_header
0.250000 0.175000 0.025000 0.707107 0.707107 0.000000
0.250000 0.175000 0.000000 0.707107 0.707107 0.000000
0.175000 0.250000 0.000000 0.707107 0.707107 0.000000
0.175000 0.250000 0.025000 0.707107 0.707107 0.000000
0.053349 0.030801 0.125000 -0.353553 0.612372 0.707107
0.078349 -0.012500 0.175000 -0.353553 0.612372 0.707107
0.121651 0.012500 0.175000 -0.353553 0.612372 0.707107
0.096651 0.055801 0.125000 -0.353553 0.612372 0.707107
0.078349 -0.012500 0.175000 0.000000 0.000000 1.000000
0.103349 -0.055801 0.175000 0.000000 0.000000 1.000000
0.146651 -0.030801 0.175000 0.000000 0.000000 1.000000
0.121651 0.012500 0.175000 0.000000 0.000000 1.000000
0.146651 -0.030801 0.175000 0.866025 0.500000 0.000000
0.146651 -0.030801 0.025000 0.866025 0.500000 0.000000
0.096651 0.055801 0.025000 0.866025 0.500000 0.000000
0.096651 0.055801 0.125000 0.866025 0.500000 0.000000
0.121651 0.012500 0.175000 0.866025 0.500000 0.000000
0.175000 0.250000 0.025000 -0.000000 1.000000 0.000000
0.175000 0.250000 0.000000 -0.000000 1.000000 0.000000
-0.250000 0.250000 0.000000 -0.000000 1.000000 0.000000
-0.250000 0.250000 0.025000 -0.000000 1.000000 0.000000
0.113351 -0.069045 0.025000 0.000000 0.000000 1.000000
-0.044210 -0.250000 0.025000 0.000000 0.000000 1.000000
0.250000 -0.250000 0.025000 0.000000 0.000000 1.000000
0.250000 0.175000 0.025000 0.000000 0.000000 1.000000
0.175000 0.250000 0.025000 0.000000 0.000000 1.000000
-0.250000 0.250000 0.025000 0.000000 0.000000 1.000000
-0.250000 -0.250000 0.025000 0.000000 0.000000 1.000000
-0.199243 -0.250000 0.025000 0.000000 0.000000 1.000000
-0.149614 -0.194828 0.025000 0.000000 0.000000 1.000000
0.031433 0.006438 0.025000 0.000000 0.000000 1.000000
0.053349 0.030801 0.025000 0.000000 0.000000 1.000000
0.096651 0.055801 0.025000 0.000000 0.000000 1.000000
0.146651 -0.030801 0.025000 0.000000 0.000000 1.000000
0.096651 0.055801 0.025000 -0.500000 0.866025 0.000000
0.053349 0.030801 0.025000 -0.500000 0.866025 0.000000
0.053349 0.030801 0.125000 -0.500000 0.866025 0.000000
0.096651 0.055801 0.125000 -0.500000 0.866025 0.000000
0.250000 -0.250000 0.025000 1.000000 0.000000 0.000000
0.250000 -0.250000 0.000000 1.000000 0.000000 0.000000
0.250000 0.175000 0.000000 1.000000 0.000000 0.000000
0.250000 0.175000 0.025000 1.000000 0.000000 0.000000
4 0 1 2 3
4 4 5 6 7
4 8 9 10 11
5 12 13 14 15 16
4 17 18 19 20
13 21 22 23 24 25 26 27 28 29 30 31 32 33
4 34 35 36 37
4 38 39 40 41
