ply
format ascii 1.0
comment Created by Blender 2.83.10 - www.blender.org, source file: ''
element vertex 39
property float x
property float y
property float z
property float nx
property float ny
property float nz
element face 8
property list uchar uint vertex_indices
end_header
0.025000 -0.050000 0.175000 1.000000 -0.000000 0.000000
0.025000 -0.050000 0.025000 1.000000 -0.000000 0.000000
0.025000 0.050000 0.025000 1.000000 -0.000000 0.000000
0.025000 0.050000 0.125000 1.000000 -0.000000 0.000000
0.025000 -0.000000 0.175000 1.000000 -0.000000 0.000000
0.025000 -0.050000 0.175000 -0.000000 0.000000 1.000000
0.025000 -0.000000 0.175000 -0.000000 0.000000 1.000000
-0.000000 -0.000000 0.175000 -0.000000 0.000000 1.000000
0.000000 -0.050000 0.175000 -0.000000 0.000000 1.000000
-0.000000 0.050000 0.125000 0.000000 0.707107 0.707107
-0.000000 -0.000000 0.175000 0.000000 0.707107 0.707107
0.025000 -0.000000 0.175000 0.000000 0.707107 0.707107
0.025000 0.050000 0.125000 0.000000 0.707107 0.707107
0.250000 -0.250000 0.025000 1.000000 0.000000 0.000000
0.250000 -0.250000 0.000000 1.000000 0.000000 0.000000
0.250000 0.175000 0.000000 1.000000 0.000000 0.000000
0.250000 0.175000 0.025000 1.000000 0.000000 0.000000
0.250000 0.175000 0.025000 0.707107 0.707107 0.000000
0.250000 0.175000 0.000000 0.707107 0.707107 0.000000
0.175000 0.250000 0.000000 0.707107 0.707107 0.000000
0.175000 0.250000 0.025000 0.707107 0.707107 0.000000
0.175000 0.250000 0.025000 -0.000000 1.000000 0.000000
0.175000 0.250000 0.000000 -0.000000 1.000000 0.000000
-0.250000 0.250000 0.000000 -0.000000 1.000000 0.000000
-0.250000 0.250000 0.025000 -0.000000 1.000000 0.000000
-0.000000 0.050000 0.125000 0.000000 1.000000 -0.000000
0.025000 0.050000 0.125000 0.000000 1.000000 -0.000000
0.025000 0.050000 0.025000 0.000000 1.000000 -0.000000
-0.000000 0.050000 0.025000 0.000000 1.000000 -0.000000
0.025000 -0.050000 0.025000 -0.000000 0.000000 1.000000
-0.202749 -0.250000 0.025000 -0.000000 0.000000 1.000000
0.250000 -0.250000 0.025000 -0.000000 0.000000 1.000000
0.250000 0.175000 0.025000 -0.000000 0.000000 1.000000
0.175000 0.250000 0.025000 -0.000000 0.000000 1.000000
-0.250000 0.250000 0.025000 -0.000000 0.000000 1.000000
-0.250000 -0.115021 0.025000 -0.000000 0.000000 1.000000
-0.053761 0.014513 0.025000 -0.000000 0.000000 1.000000
-0.000000 0.050000 0.025000 -0.000000 0.000000 1.000000
0.025000 0.050000 0.025000 -0.000000 0.000000 1.000000
5 0 1 2 3 4
4 5 6 7 8
4 9 10 11 12
4 13 14 15 16
4 17 18 19 20
4 21 22 23 24
4 25 26 27 28
10 29 30 31 32 33 34 35 36 37 38
