ply
format ascii 1.0
comment Created by Blender 2.83.10 - www.blender.org, source file: ''
element vertex 48
property float x
property float y
property float z
property float nx
property float ny
property float nz
element face 24
property list uchar uint vertex_indices
end_header
0.500000 0.000000 0.025000 0.000000 0.000000 1.000000
0.500000 0.425000 0.025000 0.000000 0.000000 1.000000
0.425000 0.500000 0.025000 0.000000 0.000000 1.000000
0.250000 0.300000 0.025000 0.000000 -0.000000 1.000000
0.000000 0.500000 0.025000 0.000000 -0.000000 1.000000
0.171374 0.294351 0.025000 0.000000 -0.000000 1.000000
0.181678 0.299372 0.025000 0.000000 -0.000000 1.000000
0.275000 0.200000 0.025000 -0.000000 0.000000 1.000000
0.255445 0.150083 0.025000 -0.000000 0.000000 1.000000
0.223485 0.124883 0.025000 -0.000000 0.000000 1.000000
0.182310 0.114277 0.025000 -0.000000 0.000000 1.000000
0.171421 0.124670 0.025000 -0.000000 0.000000 1.000000
0.000000 0.000000 0.025000 -0.000000 0.000000 1.000000
0.275000 0.300000 0.025000 0.000000 0.000000 1.000000
0.500000 0.425000 0.025000 1.000000 0.000000 -0.000000
0.500000 0.000000 0.025000 1.000000 0.000000 -0.000000
0.500000 0.425000 0.000000 1.000000 0.000000 -0.000000
0.500000 0.000000 0.000000 1.000000 -0.000000 0.000000
0.425000 0.500000 0.000000 -0.000000 1.000000 0.000000
0.000000 0.500000 0.000000 -0.000000 1.000000 0.000000
0.425000 0.500000 0.025000 -0.000000 1.000000 0.000000
0.000000 0.500000 0.025000 -0.000000 1.000000 0.000000
0.164315 0.131452 0.025000 -0.000000 0.000000 1.000000
0.145685 0.149234 0.025000 -0.000000 0.000000 1.000000
0.122963 0.187544 0.025000 -0.000000 0.000000 1.000000
0.115544 0.227807 0.025000 -0.000000 0.000000 1.000000
0.142185 0.280127 0.025000 -0.000000 0.000000 1.000000
0.425000 0.500000 0.025000 0.707107 0.707107 0.000000
0.500000 0.425000 0.025000 0.707107 0.707107 0.000000
0.425000 0.500000 0.000000 0.707107 0.707107 0.000000
0.500000 0.425000 0.000000 0.707107 0.707107 -0.000000
0.275000 0.250000 0.175000 1.000000 0.000000 -0.000000
0.275000 0.200000 0.175000 1.000000 0.000000 -0.000000
0.275000 0.300000 0.125000 1.000000 0.000000 -0.000000
0.275000 0.200000 0.025000 1.000000 -0.000000 0.000000
0.275000 0.300000 0.025000 1.000000 0.000000 -0.000000
0.250000 0.300000 0.125000 0.000000 1.000000 -0.000000
0.275000 0.300000 0.125000 0.000000 1.000000 -0.000000
0.250000 0.300000 0.025000 0.000000 1.000000 -0.000000
0.275000 0.300000 0.025000 0.000000 1.000000 -0.000000
0.275000 0.200000 0.175000 -0.000000 0.000000 1.000000
0.275000 0.250000 0.175000 -0.000000 0.000000 1.000000
0.250000 0.200000 0.175000 -0.000000 0.000000 1.000000
0.250000 0.250000 0.175000 -0.000000 0.000000 1.000000
0.250000 0.250000 0.175000 0.000000 0.707107 0.707107
0.275000 0.250000 0.175000 0.000000 0.707107 0.707107
0.250000 0.300000 0.125000 0.000000 0.707107 0.707107
0.275000 0.300000 0.125000 0.000000 0.707107 0.707107
3 0 1 2
4 3 4 5 6
7 7 8 9 10 11 12 0
3 7 0 13
3 13 0 2
3 13 2 3
3 3 2 4
3 14 15 16
3 16 15 17
3 18 19 20
3 20 19 21
8 22 23 24 25 26 5 4 12
3 27 28 29
3 29 28 30
3 11 22 12
3 31 32 33
3 33 32 34
3 33 34 35
3 36 37 38
3 38 37 39
3 40 41 42
3 42 41 43
3 44 45 46
3 46 45 47
