ply
format ascii 1.0
comment Created by Blender 2.83.10 - www.blender.org, source file: '8in10in_tee_01_blndrB.blend'
element vertex 24
property float x
property float y
property float z
property float nx
property float ny
property float nz
element face 14
property list uchar uint vertex_indices
end_header
-0.025400 0.025400 0.025400 0.000000 0.000000 1.000000
-0.076200 0.025400 0.025400 0.000000 0.000000 1.000000
-0.076200 -0.025400 0.025400 0.000000 0.000000 1.000000
-0.025400 -0.025400 0.025400 -0.000000 0.000000 1.000000
-0.025400 -0.025400 0.241300 -1.000000 0.000000 0.000000
-0.025400 0.025400 0.241300 -1.000000 0.000000 0.000000
-0.025400 -0.025400 0.025400 -1.000000 0.000000 0.000000
-0.025400 0.025400 0.025400 -1.000000 0.000000 0.000000
0.025400 0.025400 0.025400 1.000000 -0.000000 0.000000
0.025400 -0.025400 0.241300 1.000000 -0.000000 0.000000
0.025400 -0.025400 0.025400 1.000000 -0.000000 0.000000
0.184150 -0.025400 0.025400 -0.000000 0.000000 1.000000
0.184150 0.025400 0.025400 -0.000000 0.000000 1.000000
0.025400 -0.025400 0.025400 -0.000000 0.000000 1.000000
0.025400 0.025400 0.025400 0.000000 0.000000 1.000000
0.025400 0.025400 0.241300 1.000000 -0.000000 0.000000
-0.076200 0.025400 0.025400 0.000000 1.000000 -0.000000
-0.025400 0.025400 0.025400 0.000000 1.000000 -0.000000
-0.076200 0.025400 -0.025400 0.000000 1.000000 -0.000000
0.025400 0.025400 0.025400 0.000000 1.000000 -0.000000
0.184150 0.025400 -0.025400 0.000000 1.000000 -0.000000
0.184150 0.025400 0.025400 0.000000 1.000000 -0.000000
-0.025400 0.025400 0.241300 0.000000 1.000000 -0.000000
0.025400 0.025400 0.241300 0.000000 1.000000 -0.000000
3 0 1 2
3 3 0 2
3 4 5 6
3 5 7 6
3 8 9 10
3 11 12 13
3 12 14 13
3 8 15 9
3 16 17 18
3 17 19 18
3 19 20 18
3 19 21 20
3 22 23 17
3 23 19 17
