ply
format ascii 1.0
comment Created by Blender 2.83.10 - www.blender.org, source file: 'offset_tee_01.blend'
element vertex 68
property float x
property float y
property float z
property float nx
property float ny
property float nz
element face 46
property list uchar uint vertex_indices
end_header
0.175000 -0.025000 -0.025000 0.000000 -1.000000 0.000000
0.175000 -0.025000 0.025000 0.000000 -1.000000 0.000000
-0.075000 -0.025000 -0.025000 0.000000 -1.000000 0.000000
0.025000 -0.025000 0.025000 0.000000 -1.000000 0.000000
-0.025000 -0.025000 0.025000 0.000000 -1.000000 0.000000
-0.075000 -0.025000 0.025000 0.000000 -1.000000 0.000000
-0.075000 -0.020000 -0.020000 -1.000000 0.000000 0.000000
-0.075000 0.025000 -0.025000 -1.000000 0.000000 0.000000
-0.075000 -0.025000 -0.025000 -1.000000 0.000000 0.000000
-0.075000 -0.020000 0.020000 -1.000000 0.000000 0.000000
-0.075000 -0.025000 0.025000 -1.000000 0.000000 0.000000
0.175000 -0.020000 -0.020000 1.000000 -0.000000 0.000000
0.175000 -0.025000 0.025000 1.000000 -0.000000 0.000000
0.175000 -0.025000 -0.025000 1.000000 -0.000000 0.000000
0.175000 0.020000 -0.020000 1.000000 0.000000 0.000000
0.175000 0.025000 -0.025000 1.000000 -0.000000 0.000000
-0.025000 0.025000 0.025000 0.000000 0.000000 1.000000
-0.075000 0.025000 0.025000 0.000000 0.000000 1.000000
-0.075000 -0.025000 0.025000 0.000000 0.000000 1.000000
-0.025000 -0.025000 0.025000 -0.000000 0.000000 1.000000
-0.075000 0.020000 0.020000 -1.000000 0.000000 0.000000
-0.075000 0.025000 0.025000 -1.000000 0.000000 0.000000
-0.025000 -0.025000 0.175000 0.000000 -1.000000 0.000000
-0.025000 -0.025000 0.175000 -1.000000 0.000000 0.000000
-0.025000 0.025000 0.175000 -1.000000 0.000000 0.000000
-0.025000 -0.025000 0.025000 -1.000000 0.000000 0.000000
-0.025000 0.025000 0.025000 -1.000000 0.000000 0.000000
0.025000 -0.025000 0.175000 0.000000 -1.000000 0.000000
0.175000 -0.025000 0.025000 -0.000000 0.000000 1.000000
0.175000 0.025000 0.025000 -0.000000 0.000000 1.000000
0.025000 -0.025000 0.025000 -0.000000 0.000000 1.000000
0.025000 0.025000 0.025000 0.000000 0.000000 1.000000
0.025000 0.025000 0.025000 1.000000 0.000000 0.000000
0.025000 -0.025000 0.175000 1.000000 0.000000 0.000000
0.025000 -0.025000 0.025000 1.000000 0.000000 0.000000
0.175000 -0.020000 0.020000 1.000000 -0.000000 0.000000
0.175000 0.025000 0.025000 1.000000 -0.000000 0.000000
-0.025000 -0.025000 0.181000 -1.000000 0.000000 0.000004
-0.025000 0.025000 0.181000 -1.000000 0.000000 0.000004
-0.025000 -0.025000 0.175000 -1.000000 0.000000 0.000004
-0.025000 0.025000 0.175000 -1.000000 0.000000 0.000004
0.025000 -0.025000 0.175000 0.000000 -1.000000 0.000004
-0.025000 -0.025000 0.181000 0.000000 -1.000000 0.000004
-0.025000 -0.025000 0.175000 0.000000 -1.000000 0.000004
0.025000 0.025000 0.175000 1.000000 0.000000 0.000004
0.025000 -0.025000 0.181000 1.000000 0.000000 0.000004
0.025000 -0.025000 0.175000 1.000000 0.000000 0.000004
0.025000 -0.025000 0.181000 0.000000 -1.000000 0.000004
0.025000 0.025000 0.175000 1.000000 -0.000000 0.000000
0.025000 0.025000 0.181000 0.000000 0.000000 1.000000
-0.025000 0.025000 0.181000 0.000000 0.000000 1.000000
-0.025000 -0.025000 0.181000 0.000000 0.000000 1.000000
0.025000 -0.025000 0.181000 -0.000000 0.000000 1.000000
0.025000 0.025000 0.181000 1.000000 -0.000000 0.000004
-0.075000 0.020000 -0.020000 -1.000000 0.000000 0.000000
0.175000 0.020000 0.020000 1.000000 -0.000000 0.000000
0.025000 0.025000 0.181000 0.000000 1.000000 0.000004
-0.025000 0.025000 0.175000 0.000000 1.000000 0.000004
-0.025000 0.025000 0.181000 0.000000 1.000000 0.000004
0.025000 0.025000 0.175000 -0.000000 1.000000 0.000004
0.025000 0.025000 0.175000 0.000000 1.000000 0.000000
-0.025000 0.025000 0.025000 0.000000 1.000000 0.000000
-0.025000 0.025000 0.175000 0.000000 1.000000 0.000000
0.025000 0.025000 0.025000 -0.000000 1.000000 0.000000
-0.075000 0.025000 0.025000 0.000000 1.000000 -0.000000
-0.075000 0.025000 -0.025000 0.000000 1.000000 -0.000000
0.175000 0.025000 -0.025000 0.000000 1.000000 -0.000000
0.175000 0.025000 0.025000 0.000000 1.000000 -0.000000
3 0 1 2
3 1 3 2
3 4 5 2
3 3 4 2
3 6 7 8
3 9 6 8
3 10 9 8
3 11 12 13
3 14 11 13
3 15 14 13
3 16 17 18
3 19 16 18
3 20 9 10
3 21 20 10
3 3 22 4
3 23 24 25
3 24 26 25
3 27 22 3
3 28 29 30
3 29 31 30
3 32 33 34
3 35 36 12
3 11 35 12
3 37 38 39
3 38 40 39
3 41 42 43
3 44 45 46
3 47 42 41
3 32 48 33
3 49 50 51
3 52 49 51
3 44 53 45
3 54 7 6
3 55 36 35
3 20 21 54
3 21 7 54
3 15 55 14
3 15 36 55
3 56 57 58
3 59 57 56
3 60 61 62
3 63 61 60
3 64 61 65
3 61 63 65
3 63 66 65
3 63 67 66
